<svg width="70" height="70" viewBox="0 0 70 70" fill="none" xmlns="http://www.w3.org/2000/svg">
<circle cx="35" cy="35" r="34.5" stroke="white"/>
<path d="M22.4339 22.2752C21.7319 21.1223 17.9893 20.5458 15.4162 22.2752C12.843 24.0046 22.9019 39.2807 26.4106 44.4693C29.9192 49.6578 30.1534 49.9454 32.9604 49.9454C35.7675 49.9454 36.9371 50.5219 38.1067 47.9281C39.2763 45.3343 38.1067 41.5866 39.9781 41.8751C41.8495 42.1637 42.7853 47.0631 45.3583 48.5045C47.9313 49.946 54.9491 48.5045 54.9491 48.5045C54.9491 48.5045 47.4638 38.416 48.1654 36.3987C48.867 34.3814 55.6511 24.0043 54.9491 22.2752C54.2472 20.5461 47.4634 21.4105 45.8261 22.2752C44.1889 23.1399 38.3408 36.3984 38.1067 34.3811C37.8726 32.3637 39.0426 21.1225 38.1067 20.5458C37.1708 19.9691 32.7263 19.6811 30.1533 20.5458C27.5804 21.4105 28.048 22.2752 28.048 22.2752C28.048 22.2752 29.9196 21.987 30.1533 23.1399C30.3871 24.2929 32.0249 33.2281 30.1533 34.3811C28.2818 35.534 23.1358 23.4281 22.4339 22.2752Z" fill="white" stroke="black"/>
</svg>
