<svg width="70" height="70" viewBox="0 0 70 70" fill="none" xmlns="http://www.w3.org/2000/svg">
<path d="M16.7927 20.6431L16.7925 20.6432C16.1519 21.0732 15.7945 21.6354 15.6231 22.5236C15.4448 23.4474 15.4736 24.6965 15.6234 26.4639C15.6988 27.3525 15.8037 28.362 15.9229 29.5094C16.2738 32.8856 16.7487 37.4558 16.9594 43.6519L16.9594 43.6521C16.9687 43.9297 16.9766 44.1828 16.9837 44.4145C17.0104 45.2774 17.0279 45.8452 17.0808 46.286C17.1433 46.8073 17.251 47.1079 17.4872 47.4752L17.4886 47.4773C18.1564 48.5277 19.2188 49.1103 20.8026 49.3579C22.4048 49.6085 24.4777 49.5051 27.0748 49.2244C28.4415 49.0767 29.946 48.8806 31.5876 48.6667C36.144 48.0729 41.7573 47.3414 48.416 47.1236L48.4179 47.1235L48.4236 47.1234C49.1312 47.1029 50.2028 47.0719 51.2743 46.8206C52.3535 46.5675 53.3609 46.1069 53.9969 45.2804C54.456 44.6826 54.5534 44.1144 54.4763 43.1894C54.4416 42.7725 54.3731 42.3024 54.2903 41.7335C54.2784 41.6516 54.2661 41.5677 54.2537 41.4817C54.1556 40.8039 54.0457 40.01 53.9605 39.0665L53.9604 39.0663C53.771 36.957 53.8342 35.5216 53.9124 33.7447C53.9184 33.6093 53.9244 33.4719 53.9304 33.3321C54.0153 31.3643 54.099 28.8807 53.894 24.5842C53.8447 23.585 53.794 22.7932 53.6336 22.1583C53.4779 21.5419 53.2304 21.1229 52.8155 20.8303L52.8142 20.8294C52.4226 20.5514 52.0137 20.474 51.1199 20.5073C50.7982 20.5193 50.4324 20.5444 49.995 20.5744C49.8188 20.5865 49.6309 20.5994 49.4296 20.6125C48.7352 20.6579 47.9006 20.7048 46.8832 20.7279L16.7927 20.6431ZM16.7927 20.6431C16.8515 20.6036 16.8759 20.5905 16.8975 20.5817C16.9175 20.5735 16.9547 20.5611 17.0363 20.5504C17.2178 20.5267 17.5299 20.5208 18.1734 20.5331C18.5626 20.5405 19.0695 20.5544 19.7291 20.5724C21.18 20.6122 23.3698 20.6721 26.6717 20.728L26.6727 20.728M16.7927 20.6431L26.6727 20.728M26.6727 20.728C27.1485 20.7351 27.5971 20.7418 28.0218 20.7482C31.2881 20.7974 33.1418 20.8254 35.0884 20.7892C35.9587 20.775 36.7155 20.7548 37.4628 20.7349C38.8815 20.6971 40.2661 20.6603 42.3289 20.6669H42.3305M26.6727 20.728L42.3305 20.6669M42.3305 20.6669C43.9985 20.6669 44.6853 20.6923 45.1739 20.7124M42.3305 20.6669L45.1739 20.7124M45.1739 20.7124C45.1975 20.7133 45.2207 20.7143 45.2435 20.7152M45.1739 20.7124L45.2435 20.7152M45.2435 20.7152C45.7061 20.7344 46.0275 20.7477 46.8831 20.728L45.2435 20.7152Z" fill="white" stroke="black"/>
<line y1="-0.5" x2="24.6046" y2="-0.5" transform="matrix(0.748841 0.662749 -0.707418 0.706795 16.084 21.0195)" stroke="black"/>
<line y1="-0.5" x2="24.6046" y2="-0.5" transform="matrix(-0.748841 0.662749 -0.707418 -0.706795 52.9336 21.0195)" stroke="black"/>
<line y1="-0.5" x2="18.8658" y2="-0.5" transform="matrix(0.804286 0.594242 -0.641191 0.767381 38.8438 34.2686)" stroke="black"/>
<line y1="-0.5" x2="20.0525" y2="-0.5" transform="matrix(-0.702637 0.711548 -0.753256 -0.657728 31.2573 33.249)" stroke="black"/>
<circle cx="35" cy="35" r="34.5" stroke="white"/>
</svg>
