<svg width="62" height="76" viewBox="0 0 62 76" fill="none" xmlns="http://www.w3.org/2000/svg">
<g filter="url(#filter0_d_259_329)">
<path d="M30.6913 21.0055C31.3514 20.7664 39.5938 28.426 37.6022 31.5836C37.0232 32.5016 35.902 32.5284 35.6839 33.5917C35.5913 34.045 35.6936 34.5346 37.1313 36.711C38.7756 39.1992 39.2986 39.5511 39.231 40.4041C39.1345 41.5975 38.048 41.697 37.965 42.986C37.9168 43.7281 38.3549 44.4606 39.231 45.9275C39.9489 47.1285 40.2982 47.4135 40.6784 48.4367C41.184 49.8003 40.9583 50.3454 40.8946 50.4811C40.6996 50.9057 40.2847 51.2729 39.4472 51.556C37.5559 52.1986 35.7206 51.6631 34.4893 51.4125C30.1973 50.5366 29.2111 52.277 24.0314 51.2328C21.4878 50.7202 21.1636 50.1866 21.0632 49.9055C20.463 48.2072 24.3536 45.26 23.5952 43.8811C23.5547 43.8084 23.352 43.468 23.0162 43.0931C22.5145 42.5327 22.2327 42.4734 22.0031 42.1254C21.6692 41.6205 21.7773 41.0142 21.8583 40.5475C22.2732 38.1818 24.6972 36.1086 25.0059 35.8504C25.1796 35.7051 25.6235 35.3455 25.7296 34.7756C25.7393 34.7239 25.8454 34.11 25.4768 33.6281C24.9944 32.9969 24.2301 33.2838 23.848 32.9109C23.271 32.3486 24.1336 30.8434 25.911 27.1733C25.911 27.1733 27.9393 22.9849 29.8557 21.4721C30.0641 21.3076 30.2899 21.1852 30.2899 21.1852C30.2899 21.1852 30.4887 21.0781 30.6913 21.0055Z" fill="#E8E8E1"/>
<path d="M30.3672 51.164V55.1191H32.2565V50.9249" fill="#E8E8E1"/>
</g>
<defs>
<filter id="filter0_d_259_329" x="0.5" y="0.5" width="61" height="75.119" filterUnits="userSpaceOnUse" color-interpolation-filters="sRGB">
<feFlood flood-opacity="0" result="BackgroundImageFix"/>
<feColorMatrix in="SourceAlpha" type="matrix" values="0 0 0 0 0 0 0 0 0 0 0 0 0 0 0 0 0 0 127 0" result="hardAlpha"/>
<feOffset/>
<feGaussianBlur stdDeviation="10.25"/>
<feComposite in2="hardAlpha" operator="out"/>
<feColorMatrix type="matrix" values="0 0 0 0 0.9 0 0 0 0 0.604054 0 0 0 0 0.3525 0 0 0 1 0"/>
<feBlend mode="normal" in2="BackgroundImageFix" result="effect1_dropShadow_259_329"/>
<feBlend mode="normal" in="SourceGraphic" in2="effect1_dropShadow_259_329" result="shape"/>
</filter>
</defs>
</svg>
